<svg width="41" height="40" viewBox="0 0 41 40" fill="none" xmlns="http://www.w3.org/2000/svg">
<path fill-rule="evenodd" clip-rule="evenodd" d="M20.3636 10.5718C17.8418 10.5718 15.457 10.169 13.6487 9.43754C11.5721 8.59762 10.4283 7.37305 10.4284 5.9893C10.4284 4.60565 11.5721 3.38107 13.6488 2.54115C14.9426 2.0179 16.5323 1.66392 18.2554 1.50418C17.9784 1.13748 18.004 0.609832 18.3337 0.273902C18.6922 -0.0913007 19.2733 -0.0913007 19.6318 0.273902L21.0125 1.68094C21.3709 2.04614 21.3709 2.63832 21.0125 3.00352L19.6317 4.41047C19.4525 4.59311 19.2175 4.68439 18.9827 4.68439C18.7478 4.68439 18.5129 4.59311 18.3337 4.41047C18.0642 4.13579 17.9974 3.73281 18.1333 3.39454C16.6997 3.54791 15.3911 3.84877 14.326 4.27963C12.804 4.89519 12.264 5.58538 12.264 5.9893C12.264 6.39322 12.804 7.08341 14.326 7.69897C15.9239 8.3453 18.0681 8.70125 20.3636 8.70125C22.659 8.70125 24.8032 8.3453 26.4012 7.69897C27.9231 7.08341 28.4631 6.39332 28.4631 5.9893C28.4631 5.33371 27.2088 4.36305 24.8115 3.7762C24.3187 3.65556 24.0151 3.15063 24.1335 2.64842C24.2518 2.14621 24.7476 1.83684 25.2404 1.95758C28.4551 2.74447 30.2988 4.21407 30.2988 5.98939C30.2988 7.37305 29.1551 8.59762 27.0784 9.43754C25.2701 10.169 22.8854 10.5718 20.3636 10.5718ZM34.3922 14.7946C39.6282 16.4924 40.7273 18.6408 40.7273 20.1442C40.7273 20.1687 40.7269 20.1934 40.7264 20.2182C40.7067 25.5023 38.5858 30.4651 34.7478 34.1994C30.9035 37.94 25.795 40 20.3636 40C14.9323 40 9.8239 37.94 5.9795 34.1994C2.14152 30.4651 0.0205598 25.5023 0.000917847 20.2182C0.000367139 20.1934 0 20.1687 0 20.1442C0 18.6408 1.09912 16.4924 6.33517 14.7945C10.0956 13.5752 15.0777 12.9037 20.3637 12.9037C23.9135 12.9037 27.3256 13.207 30.3234 13.7752L32.6082 10.2385C32.8869 9.80713 33.4561 9.68761 33.8795 9.97164C34.3029 10.2557 34.4202 10.8356 34.1414 11.267L32.2521 14.1915C33.0011 14.3745 33.7167 14.5755 34.3922 14.7946ZM38.8916 20.1442C38.8916 18.9551 36.9543 17.5882 33.8355 16.577C33.0092 16.309 32.1183 16.0692 31.1754 15.8582L27.4045 21.6951C30.224 22.0444 32.797 22.6016 34.9012 23.3344C37.3891 22.3759 38.8916 21.1912 38.8916 20.1442ZM9.11349 24.3292C12.3504 25.0984 16.2536 25.5141 20.3636 25.5141C21.1753 25.5141 21.9788 25.4978 22.7707 25.4658L24.1905 23.2681C22.9415 23.1855 21.66 23.1426 20.3634 23.1426C16.2793 23.1426 12.3432 23.5652 9.11349 24.3292ZM31.6139 24.3292C29.9889 23.9448 28.1849 23.6471 26.2733 23.446L25.0578 25.3275C27.4214 25.1355 29.6413 24.7979 31.6139 24.3292ZM20.3635 14.7743C15.2613 14.7743 10.477 15.4145 6.89166 16.577C3.773 17.5881 1.83569 18.9551 1.83569 20.1442C1.83569 21.1913 3.3383 22.376 5.82613 23.3344C9.59444 22.0219 14.8652 21.2721 20.3633 21.2721C22.0581 21.2721 23.7308 21.3439 25.3451 21.4808L29.2245 15.4759C26.5287 15.0175 23.5067 14.7743 20.3635 14.7743ZM2.17034 23.5525C3.81577 31.8454 11.3475 38.1296 20.3636 38.1296C29.3797 38.1296 36.9115 31.8455 38.5569 23.5525C37.6039 24.2239 36.2619 24.8876 34.3922 25.4938C30.6319 26.7131 25.6497 27.3846 20.3636 27.3846C15.0776 27.3846 10.0955 26.7131 6.33508 25.4938C4.46533 24.8875 3.12334 24.2238 2.17034 23.5525Z" fill="#FFB84D"/>
</svg>
